<?xml version="1.0" encoding="UTF-8" standalone="no"?>
<!-- generated at drububu.com  -->

<svg
   xmlns:dc="http://purl.org/dc/elements/1.1/"
   xmlns:cc="http://creativecommons.org/ns#"
   xmlns:rdf="http://www.w3.org/1999/02/22-rdf-syntax-ns#"
   xmlns:svg="http://www.w3.org/2000/svg"
   xmlns="http://www.w3.org/2000/svg"
   xmlns:sodipodi="http://sodipodi.sourceforge.net/DTD/sodipodi-0.dtd"
   xmlns:inkscape="http://www.inkscape.org/namespaces/inkscape"
   version="1.1"
   preserveAspectRatio="xMinYMin meet"
   x="0px"
   y="0px"
   width="50pc"
   height="50pc"
   viewBox="0 0 750.00001 750.00001"
   id="svg2"
   inkscape:version="0.91 r13725"
   sodipodi:docname="teamlogo (1).svg">
  <metadata
     id="metadata82">
    <rdf:RDF>
      <cc:Work
         rdf:about="">
        <dc:format>image/svg+xml</dc:format>
        <dc:type
           rdf:resource="http://purl.org/dc/dcmitype/StillImage" />
        <dc:title></dc:title>
      </cc:Work>
    </rdf:RDF>
  </metadata>
  <defs
     id="defs80" />
  <sodipodi:namedview
     pagecolor="#ffffff"
     bordercolor="#666666"
     borderopacity="1"
     objecttolerance="10"
     gridtolerance="10"
     guidetolerance="10"
     inkscape:pageopacity="0"
     inkscape:pageshadow="2"
     inkscape:window-width="1858"
     inkscape:window-height="1058"
     id="namedview78"
     showgrid="false"
     inkscape:zoom="1"
     inkscape:cx="484.02787"
     inkscape:cy="329.5549"
     inkscape:window-x="1432"
     inkscape:window-y="-8"
     inkscape:window-maximized="1"
     inkscape:current-layer="svg2"
     units="pc" />
  <g
     id="g4227"
     transform="translate(35.411765,6.631579)">
    <path
       style="fill:#000000"
       inkscape:connector-curvature="0"
       id="path6"
       d="m 118.86997,79.736842 543.3065,0 0,67.913308 -33.95665,0 0,-33.95665 -475.3932,0 0,33.95665 -33.95665,0 0,-67.913308 z" />
    <path
       style="fill:#007236"
       inkscape:connector-curvature="0"
       id="path8"
       d="m 152.82662,113.6935 101.86998,0 0,33.95665 -101.86998,0 0,-33.95665 z" />
    <path
       style="fill:#00a651"
       inkscape:connector-curvature="0"
       id="path10"
       d="m 254.6966,113.6935 33.95665,0 0,33.95665 -33.95665,0 0,-33.95665 z" />
    <path
       style="fill:#007236"
       inkscape:connector-curvature="0"
       id="path12"
       d="m 288.65325,113.6935 33.95666,0 0,33.95665 -33.95666,0 0,-33.95665 z" />
    <path
       style="fill:#00a651"
       inkscape:connector-curvature="0"
       id="path14"
       d="m 322.60991,113.6935 135.82662,0 0,33.95665 -135.82662,0 0,-33.95665 z" />
    <path
       style="fill:#007236"
       inkscape:connector-curvature="0"
       id="path16"
       d="m 458.43653,113.6935 33.95665,0 0,33.95665 -33.95665,0 0,-33.95665 z" />
    <path
       style="fill:#00a651"
       inkscape:connector-curvature="0"
       id="path18"
       d="m 492.39318,113.6935 33.95667,0 0,33.95665 -33.95667,0 0,-33.95665 z" />
    <path
       style="fill:#007236"
       inkscape:connector-curvature="0"
       id="path20"
       d="m 526.34985,113.6935 101.86997,0 0,33.95665 -101.86997,0 0,-33.95665 z" />
    <path
       style="fill:#000000"
       inkscape:connector-curvature="0"
       id="path22"
       d="m 152.82662,147.65015 475.3932,0 0,407.47988 -475.3932,0 0,-67.91332 -101.869964,0 0,-33.95665 101.869964,0 0,-33.95666 -67.913308,0 0,-135.82662 67.913308,0 0,-33.95665 -101.869964,0 0,-33.95666 101.869964,0 0,-67.91332 z" />
    <path
       style="fill:#007236"
       inkscape:connector-curvature="0"
       id="path26"
       d="m 186.78329,181.60682 33.95665,0 0,339.56656 -33.95665,0 0,-339.56656 z" />
    <path
       style="fill:#00a651"
       inkscape:connector-curvature="0"
       id="path28"
       d="m 220.73994,181.60682 33.95666,0 0,339.56656 -33.95666,0 0,-339.56656 z" />
    <path
       style="fill:#007236"
       inkscape:connector-curvature="0"
       id="path30"
       d="m 254.6966,181.60682 33.95665,0 0,33.95665 -33.95665,0 0,-33.95665 z" />
    <path
       style="fill:#00a651"
       inkscape:connector-curvature="0"
       id="path32"
       d="m 288.65325,181.60682 203.73993,0 0,33.95665 -203.73993,0 0,-33.95665 z" />
    <path
       style="fill:#007236"
       inkscape:connector-curvature="0"
       id="path34"
       d="m 492.39318,181.60682 33.95667,0 0,33.95665 -33.95667,0 0,-33.95665 z" />
    <path
       style="fill:#00a651"
       inkscape:connector-curvature="0"
       id="path36"
       d="m 526.34985,181.60682 33.95665,0 0,339.56656 -33.95665,0 0,-339.56656 z" />
    <path
       style="fill:#007236"
       inkscape:connector-curvature="0"
       id="path38"
       d="m 560.3065,181.60682 33.95666,0 0,339.56656 -33.95666,0 0,-339.56656 z" />
    <path
       style="fill:#000000"
       inkscape:connector-curvature="0"
       id="path40"
       d="m 254.6966,215.56347 271.65325,0 0,169.78328 -169.78329,0 0,101.86996 -101.86996,0 0,-271.65324 z" />
    <path
       style="fill:#000000"
       inkscape:connector-curvature="0"
       id="path42"
       d="m 17,249.52013 33.956656,0 0,203.73993 -33.956656,0 0,-203.73993 z" />
    <path
       style="fill:#00a651"
       inkscape:connector-curvature="0"
       id="path44"
       d="m 50.956656,249.52013 67.913314,0 0,33.95665 -33.956658,0 0,135.82662 33.956658,0 0,33.95666 -67.913314,0 0,-203.73993 z" />
    <path
       style="fill:#007236"
       inkscape:connector-curvature="0"
       id="path46"
       d="m 118.86997,249.52013 33.95665,0 0,33.95665 -33.95665,0 0,-33.95665 z" />
    <path
       style="fill:#00a651"
       inkscape:connector-curvature="0"
       id="path48"
       d="m 356.56656,283.47678 101.86997,0 0,33.95666 -101.86997,0 0,-33.95666 z" />
    <path
       style="fill:#ffffff"
       inkscape:connector-curvature="0"
       id="path50"
       d="m 118.86997,317.43344 33.95665,0 0,67.91331 -33.95665,0 0,-67.91331 z" />
    <path
       style="fill:#00a651"
       inkscape:connector-curvature="0"
       id="path52"
       d="m 356.56656,385.34675 135.82662,0 0,135.82663 -203.73993,0 0,-33.95667 67.91331,0 0,-101.86996 z" />
    <path
       style="fill:#007236"
       inkscape:connector-curvature="0"
       id="path54"
       d="m 492.39318,385.34675 33.95667,0 0,135.82663 -33.95667,0 0,-135.82663 z" />
    <path
       style="fill:#007236"
       inkscape:connector-curvature="0"
       id="path56"
       d="m 118.86997,419.3034 33.95665,0 0,33.95666 -33.95665,0 0,-33.95666 z" />
    <path
       style="fill:#007236"
       inkscape:connector-curvature="0"
       id="path60"
       d="m 254.6966,487.21671 33.95665,0 0,33.95667 -33.95665,0 0,-33.95667 z" />
    <path
       style="fill:#000000"
       inkscape:connector-curvature="0"
       id="path62"
       d="m 118.86997,555.13003 33.95665,0 0,67.91331 475.3932,0 0,-67.91331 33.95665,0 0,101.86997 -543.3065,0 0,-101.86997 z" />
    <path
       style="fill:#007236"
       inkscape:connector-curvature="0"
       id="path64"
       d="m 152.82662,555.13003 101.86998,0 0,67.91331 -101.86998,0 0,-67.91331 z" />
    <path
       style="fill:#00a651"
       inkscape:connector-curvature="0"
       id="path66"
       d="m 254.6966,555.13003 33.95665,0 0,67.91331 -33.95665,0 0,-67.91331 z" />
    <path
       style="fill:#007236"
       inkscape:connector-curvature="0"
       id="path68"
       d="m 288.65325,555.13003 33.95666,0 0,67.91331 -33.95666,0 0,-67.91331 z" />
    <path
       style="fill:#00a651"
       inkscape:connector-curvature="0"
       id="path70"
       d="m 322.60991,555.13003 135.82662,0 0,67.91331 -135.82662,0 0,-67.91331 z" />
    <path
       style="fill:#007236"
       inkscape:connector-curvature="0"
       id="path72"
       d="m 458.43653,555.13003 33.95665,0 0,67.91331 -33.95665,0 0,-67.91331 z" />
    <path
       style="fill:#00a651"
       inkscape:connector-curvature="0"
       id="path74"
       d="m 492.39318,555.13003 33.95667,0 0,67.91331 -33.95667,0 0,-67.91331 z" />
    <path
       style="fill:#007236"
       inkscape:connector-curvature="0"
       id="path76"
       d="m 526.34985,555.13003 101.86997,0 0,67.91331 -101.86997,0 0,-67.91331 z" />
  </g>
</svg>
